<?xml version="1.0" standalone="no"?>
<!DOCTYPE svg PUBLIC "-//W3C//DTD SVG 20010904//EN"
 "http://www.w3.org/TR/2001/REC-SVG-20010904/DTD/svg10.dtd">
<svg version="1.0" xmlns="http://www.w3.org/2000/svg"
 width="300.000000pt" height="300.000000pt" viewBox="0 0 300.000000 300.000000"
 preserveAspectRatio="xMidYMid meet">
<metadata>
Created by potrace 1.11, written by Peter Selinger 2001-2013
</metadata>
<g transform="translate(0.000000,300.000000) scale(0.100000,-0.100000)"
fill="#000000" stroke="none">
<path d="M1880 2235 c0 -2 -27 -131 -60 -286 -33 -155 -60 -289 -60 -298 0
-13 12 -16 72 -14 51 1 74 5 77 15 3 7 25 110 50 228 l46 215 149 3 c82 1 153
-1 157 -5 5 -5 1 -37 -7 -73 -23 -97 -75 -342 -77 -363 -2 -17 11 -18 214 -17
118 0 222 -2 230 -5 13 -5 11 -26 -15 -145 l-30 -140 -228 0 c-227 0 -228 0
-238 -22 -5 -13 -25 -102 -45 -198 -20 -96 -40 -185 -45 -197 -9 -22 -14 -23
-182 -25 l-172 -3 -13 -60 c-7 -33 -12 -63 -13 -68 0 -4 114 -6 252 -5 l253 3
45 213 44 212 233 0 c128 0 233 3 233 8 0 4 27 132 60 285 33 154 60 281 60
283 0 2 -104 4 -231 4 l-231 0 6 28 c3 15 24 112 46 216 22 104 40 195 40 203
0 11 -57 13 -310 13 -170 0 -310 -2 -310 -5z"/>
<path d="M1286 1778 c-3 -13 -8 -48 -11 -78 -11 -99 -44 -221 -84 -306 -22
-46 -41 -84 -44 -84 -2 0 -2 24 1 54 9 111 -48 230 -141 291 -205 135 -476 8
-502 -235 -6 -51 6 -116 30 -174 10 -24 3 -20 -228 131 -87 57 -160 103 -163
103 -2 0 -4 -24 -4 -52 l0 -53 63 -42 c273 -182 465 -272 624 -292 280 -35
541 111 739 414 55 84 101 172 93 178 -3 3 -330 153 -360 165 -5 2 -10 -7 -13
-20z m-369 -174 c46 -17 107 -78 129 -130 33 -80 8 -189 -57 -251 -125 -118
-322 -72 -384 91 -49 128 38 279 176 305 49 9 75 6 136 -15z"/>
</g>
</svg>
